<?xml version="1.0" standalone="no"?>
<!DOCTYPE svg PUBLIC "-//W3C//DTD SVG 20010904//EN"
 "http://www.w3.org/TR/2001/REC-SVG-20010904/DTD/svg10.dtd">
<svg version="1.0" xmlns="http://www.w3.org/2000/svg"
 width="2432.000000pt" height="1344.000000pt" viewBox="0 0 2432.000000 1344.000000"
 preserveAspectRatio="xMidYMid meet">

<g transform="translate(0.000000,1344.000000) scale(0.100000,-0.100000)"
fill="#000000" stroke="none">
<path d="M1210 6740 l0 -5980 10160 0 10160 0 0 -30 0 -30 100 0 100 0 0 30 0
30 300 0 300 0 0 -30 0 -30 95 0 95 0 0 30 c0 30 1 30 55 30 54 0 55 0 55 -30
l0 -30 100 0 100 0 0 30 c0 29 1 30 50 30 49 0 50 -1 50 -30 0 -29 1 -30 50
-30 49 0 50 1 50 30 0 29 1 30 50 30 47 0 50 2 50 25 0 23 -3 25 -50 25 -49 0
-50 1 -50 30 0 29 1 30 50 30 47 0 50 2 50 25 0 23 -3 25 -50 25 l-50 0 0 55
0 55 50 0 c49 0 50 1 50 30 0 29 -1 30 -50 30 l-50 0 0 5815 0 5815 -10910 0
-10910 0 0 -5980z m12810 4495 l0 -385 50 0 c47 0 50 2 50 25 0 23 3 25 50 25
l50 0 0 60 0 60 50 0 50 0 0 80 0 80 50 0 50 0 0 55 0 55 50 0 50 0 0 55 0 55
55 0 55 0 0 55 0 55 45 0 45 0 0 55 0 55 350 0 350 0 0 -55 0 -55 -50 0 -50 0
0 -55 0 -55 -45 0 -45 0 0 -55 0 -55 -55 0 -55 0 0 -55 0 -55 -50 0 -50 0 0
-80 0 -80 -45 0 -45 0 0 -60 0 -60 -55 0 -55 0 0 -50 0 -50 -50 0 -50 0 0 -85
0 -85 50 0 50 0 0 -80 0 -80 55 0 55 0 0 -55 0 -55 45 0 45 0 0 -80 0 -80 50
0 50 0 0 -60 0 -60 55 0 55 0 0 -80 0 -80 45 0 45 0 0 -55 0 -55 50 0 50 0 0
-55 0 -55 50 0 50 0 0 -80 0 -80 50 0 50 0 0 -85 0 -85 -300 0 -300 0 0 25 c0
23 -4 25 -45 25 l-45 0 0 60 0 60 -55 0 -55 0 0 80 0 80 -50 0 -50 0 0 55 0
55 -45 0 -45 0 0 85 0 85 -55 0 -55 0 0 80 0 80 -50 0 -50 0 0 55 0 55 -50 0
c-47 0 -50 -2 -50 -25 0 -23 -3 -25 -50 -25 l-50 0 0 -60 0 -60 -50 0 -50 0 0
-50 0 -50 -50 0 -50 0 0 -305 0 -305 -300 0 -300 0 0 1125 0 1125 300 0 300 0
0 -385z m1000 -2330 c0 -23 3 -25 50 -25 49 0 50 -1 50 -30 0 -30 1 -30 55
-30 l55 0 0 -55 0 -55 45 0 45 0 0 -435 0 -435 -45 0 c-43 0 -45 -1 -45 -30 0
-30 -1 -30 -55 -30 -54 0 -55 0 -55 -30 l0 -30 -95 0 -95 0 0 -80 0 -80 45 0
45 0 0 -55 0 -55 50 0 50 0 0 -85 0 -85 55 0 55 0 0 -50 0 -50 45 0 45 0 0
-60 0 -60 50 0 50 0 0 -50 0 -50 50 0 50 0 0 -85 0 -85 50 0 50 0 0 -55 0 -55
-345 0 -345 0 0 55 0 55 -55 0 -55 0 0 55 0 55 -50 0 -50 0 0 80 0 80 -45 0
-45 0 0 60 0 60 -55 0 -55 0 0 50 0 50 -50 0 -50 0 0 85 0 85 -50 0 c-47 0
-50 2 -50 25 l0 25 -100 0 -100 0 0 -410 0 -410 -300 0 -300 0 0 1125 0 1125
750 0 750 0 0 -25z m0 -2740 c0 -23 3 -25 50 -25 49 0 50 -1 50 -30 0 -30 1
-30 55 -30 l55 0 0 -55 0 -55 45 0 45 0 0 -1015 0 -1015 -345 0 -345 0 0 465
0 465 -105 0 -105 0 0 -25 0 -25 -100 0 -100 0 0 -30 c0 -29 -1 -30 -50 -30
l-50 0 0 -410 0 -410 -300 0 -300 0 0 1070 0 1070 55 0 c54 0 55 0 55 30 0 29
2 30 45 30 41 0 45 2 45 25 l0 25 650 0 650 0 0 -25z m-5400 -2750 c0 -23 4
-25 45 -25 41 0 45 -2 45 -25 0 -24 3 -25 55 -25 l55 0 0 -140 0 -140 -55 0
c-52 0 -55 -1 -55 -25 0 -25 0 -25 -95 -25 l-95 0 0 -30 0 -30 -100 0 -100 0
0 -25 c0 -23 -3 -25 -50 -25 l-50 0 0 110 0 110 -250 0 -250 0 0 -275 0 -275
100 0 100 0 0 25 c0 25 0 25 95 25 l95 0 0 30 0 30 105 0 105 0 0 25 0 25 100
0 100 0 0 30 0 30 95 0 c95 0 95 0 95 25 0 24 3 25 55 25 l55 0 0 -740 0 -740
-55 0 -55 0 0 -55 0 -55 -95 0 c-95 0 -95 0 -95 -25 l0 -25 -600 0 -600 0 0
25 c0 23 -3 25 -50 25 -47 0 -50 2 -50 25 0 24 -3 25 -55 25 l-55 0 0 60 0 60
-45 0 -45 0 0 160 0 160 100 0 100 0 0 30 0 30 95 0 95 0 0 30 0 30 155 0 155
0 0 -170 0 -170 195 0 195 0 0 30 c0 30 1 30 55 30 l55 0 0 330 0 330 -100 0
-100 0 0 -30 0 -30 -100 0 -100 0 0 -25 0 -25 -100 0 -100 0 0 -25 0 -25 -105
0 -105 0 0 -30 0 -30 -95 0 -95 0 0 -30 0 -30 -100 0 -100 0 0 660 0 660 45 0
c43 0 45 1 45 30 0 30 1 30 55 30 52 0 55 1 55 25 0 23 3 25 50 25 47 0 50 2
50 25 l0 25 650 0 650 0 0 -25z m2300 0 c0 -23 3 -25 50 -25 47 0 50 -2 50
-25 0 -23 3 -25 50 -25 l50 0 0 -990 0 -990 -50 0 -50 0 0 -55 0 -55 -100 0
-100 0 0 -25 0 -25 -600 0 -600 0 0 25 c0 23 -3 25 -50 25 -47 0 -50 2 -50 25
0 23 -3 25 -50 25 l-50 0 0 60 0 60 -50 0 -50 0 0 930 0 930 50 0 c49 0 50 1
50 30 0 29 1 30 50 30 47 0 50 2 50 25 0 23 3 25 50 25 47 0 50 2 50 25 l0 25
650 0 650 0 0 -25z m2300 -135 l0 -160 -450 0 -450 0 0 -300 0 -300 50 0 c47
0 50 2 50 25 l0 25 105 0 105 0 0 25 c0 25 0 25 95 25 l95 0 0 30 0 30 100 0
100 0 0 25 0 25 100 0 100 0 0 -190 0 -190 -100 0 -100 0 0 -25 0 -25 -100 0
-100 0 0 -30 0 -30 -95 0 -95 0 0 -30 0 -30 -105 0 -105 0 0 -25 c0 -23 -3
-25 -50 -25 l-50 0 0 -465 0 -465 -350 0 -350 0 0 1040 0 1040 50 0 c49 0 50
1 50 30 0 29 1 30 50 30 47 0 50 2 50 25 0 23 3 25 50 25 47 0 50 2 50 25 l0
25 650 0 650 0 0 -160z m2100 0 l0 -160 -300 0 -300 0 0 -960 0 -960 -350 0
-350 0 0 960 0 960 -300 0 -300 0 0 160 0 160 950 0 950 0 0 -160z"/>
<path d="M14120 8245 l0 -355 50 0 c47 0 50 2 50 25 l0 25 100 0 100 0 0 30 0
30 105 0 105 0 0 300 0 300 -255 0 -255 0 0 -355z"/>
<path d="M14120 5530 l0 -330 150 0 150 0 0 30 0 30 105 0 105 0 0 300 0 300
-255 0 -255 0 0 -330z"/>
<path d="M11020 2320 l0 -800 250 0 250 0 0 800 0 800 -250 0 -250 0 0 -800z"/>
<path d="M10 20 c0 -20 7 -20 12155 -20 12148 0 12155 0 12155 20 0 20 -7 20
-12155 20 -12148 0 -12155 0 -12155 -20z"/>
</g>
</svg>
