<?xml version="1.0" encoding="UTF-8"?>
<svg xmlns="http://www.w3.org/2000/svg" width="50px" height="50px" viewBox="0 0 50 50" version="1.1">
<g id="surface1">
<path style=" stroke:none;fill-rule:nonzero;fill:rgb(0%,0%,0%);fill-opacity:1;" d="M 0 25 L 0 50 L 50 50 L 50 0 L 0 0 Z M 37.128906 12.871094 C 37.25 12.992188 37.25 37.007812 37.128906 37.128906 C 37 37.257812 12.980469 37.25 12.871094 37.128906 C 12.785156 37.015625 12.792969 13.015625 12.878906 12.871094 C 12.964844 12.75 37 12.742188 37.128906 12.871094 Z M 37.128906 12.871094 "/>
<path style=" stroke:none;fill-rule:nonzero;fill:rgb(0%,0%,0%);fill-opacity:1;" d="M 14.105469 14.15625 C 14.085938 14.207031 14.078125 19.121094 14.085938 25.070312 L 14.105469 35.894531 L 35.894531 35.894531 L 35.894531 14.105469 L 25.015625 14.085938 C 16.351562 14.070312 14.128906 14.085938 14.105469 14.15625 Z M 26.898438 16.800781 C 26.90625 17.1875 26.941406 17.507812 26.972656 17.515625 C 27 17.527344 27.101562 17.355469 27.1875 17.144531 C 27.613281 16.058594 27.601562 16.070312 27.964844 16.070312 C 28.144531 16.070312 28.285156 16.101562 28.285156 16.144531 C 28.285156 16.179688 28.121094 16.550781 27.929688 16.972656 L 27.570312 17.734375 L 28.035156 18.894531 C 28.292969 19.527344 28.5 20.085938 28.5 20.136719 C 28.5 20.191406 28.398438 20.214844 28.199219 20.199219 L 27.894531 20.179688 L 27.570312 19.378906 C 27.394531 18.9375 27.230469 18.570312 27.207031 18.570312 C 27.09375 18.570312 26.972656 19.019531 26.9375 19.570312 L 26.894531 20.179688 L 26.320312 20.179688 L 26.300781 18.214844 C 26.292969 17.136719 26.300781 16.207031 26.320312 16.15625 C 26.34375 16.09375 26.449219 16.070312 26.621094 16.085938 L 26.894531 16.105469 Z M 28 21.15625 C 28.128906 21.292969 28.144531 21.40625 28.144531 22.179688 C 28.144531 23.035156 28.144531 23.050781 27.964844 23.128906 C 27.863281 23.171875 27.785156 23.242188 27.785156 23.285156 C 27.785156 23.328125 27.949219 23.734375 28.144531 24.1875 C 28.34375 24.636719 28.5 25.019531 28.5 25.042969 C 28.5 25.0625 28.351562 25.070312 28.164062 25.058594 L 27.828125 25.035156 L 27.550781 24.394531 C 27.09375 23.335938 27 23.328125 27 24.363281 L 27 25.070312 L 26.355469 25.070312 L 26.355469 21 L 27.105469 21 C 27.777344 21 27.863281 21.015625 28 21.15625 Z M 28 26.144531 C 28.136719 26.277344 28.144531 26.378906 28.144531 28.179688 L 28.144531 30.070312 L 27.5 30.070312 L 27.5 29.214844 C 27.5 28.742188 27.480469 28.355469 27.457031 28.355469 C 27.4375 28.355469 27.320312 28.421875 27.207031 28.507812 C 27 28.648438 27 28.65625 27 29.363281 L 27 30.070312 L 26.351562 30.070312 L 26.371094 28.1875 C 26.398438 25.894531 26.355469 26 27.265625 26 C 27.765625 26 27.878906 26.019531 28 26.144531 Z M 22.550781 31.15625 C 22.644531 31.242188 22.714844 31.394531 22.714844 31.515625 C 22.714844 31.671875 22.65625 31.742188 22.429688 31.855469 C 22.078125 32.035156 22.085938 32.035156 22.058594 31.800781 C 22.035156 31.636719 22 31.605469 21.820312 31.605469 L 21.605469 31.605469 L 21.585938 32.121094 C 21.570312 32.40625 21.585938 32.644531 21.605469 32.644531 C 21.628906 32.644531 21.871094 32.527344 22.144531 32.394531 C 22.414062 32.257812 22.65625 32.144531 22.679688 32.144531 C 22.699219 32.144531 22.714844 32.714844 22.714844 33.421875 C 22.714844 34.601562 22.699219 34.707031 22.5625 34.886719 C 22.429688 35.058594 22.378906 35.070312 21.820312 35.070312 C 21.265625 35.070312 21.214844 35.058594 21.078125 34.886719 C 20.984375 34.765625 20.929688 34.59375 20.929688 34.421875 C 20.929688 34.191406 20.964844 34.128906 21.144531 34.035156 C 21.472656 33.863281 21.558594 33.894531 21.585938 34.191406 C 21.605469 34.441406 21.628906 34.464844 21.820312 34.464844 L 22.035156 34.464844 L 22.058594 33.835938 C 22.0625 33.492188 22.058594 33.214844 22.035156 33.214844 C 22.015625 33.214844 21.769531 33.328125 21.5 33.464844 C 21.230469 33.601562 20.984375 33.714844 20.964844 33.714844 C 20.941406 33.714844 20.929688 33.1875 20.929688 32.542969 C 20.929688 31.472656 20.941406 31.363281 21.078125 31.1875 C 21.214844 31.015625 21.265625 31 21.808594 31 C 22.300781 31 22.40625 31.019531 22.550781 31.15625 Z M 24.855469 31.144531 C 24.992188 31.277344 25 31.378906 25 33.019531 C 25 35.148438 25.035156 35.070312 24.105469 35.070312 C 23.550781 35.070312 23.5 35.058594 23.363281 34.886719 C 23.222656 34.707031 23.214844 34.605469 23.214844 33.035156 C 23.214844 31.464844 23.222656 31.363281 23.363281 31.1875 C 23.5 31.015625 23.550781 31 24.113281 31 C 24.621094 31 24.734375 31.019531 24.855469 31.144531 Z M 27.070312 31.285156 L 27.070312 31.5625 L 26.628906 31.585938 L 26.179688 31.605469 L 26.15625 32.0625 C 26.128906 32.722656 26.144531 32.742188 26.585938 32.5 C 26.792969 32.386719 26.984375 32.285156 27.019531 32.285156 C 27.050781 32.285156 27.070312 32.441406 27.070312 32.628906 L 27.070312 32.972656 L 26.605469 33.199219 L 26.144531 33.429688 L 26.144531 35.070312 L 25.5 35.070312 L 25.5 33.222656 C 25.5 31.464844 25.507812 31.363281 25.648438 31.1875 C 25.785156 31.007812 25.828125 31 26.4375 31 L 27.070312 31 Z M 29.214844 31.277344 C 29.214844 31.5625 29.214844 31.5625 28.914062 31.585938 L 28.605469 31.605469 L 28.585938 33.335938 L 28.570312 35.070312 L 27.929688 35.070312 L 27.914062 33.335938 L 27.894531 31.605469 L 27.59375 31.585938 C 27.285156 31.5625 27.285156 31.5625 27.285156 31.277344 L 27.285156 31 L 29.214844 31 Z M 29.214844 31.277344 "/>
<path style=" stroke:none;fill-rule:nonzero;fill:rgb(0%,0%,0%);fill-opacity:1;" d="M 27.050781 21.621094 C 26.984375 21.679688 26.984375 22.8125 27.042969 22.878906 C 27.070312 22.898438 27.179688 22.851562 27.292969 22.769531 C 27.484375 22.621094 27.5 22.585938 27.5 22.09375 L 27.5 21.570312 L 27.300781 21.570312 C 27.1875 21.570312 27.070312 21.59375 27.050781 21.621094 Z M 27.050781 21.621094 "/>
<path style=" stroke:none;fill-rule:nonzero;fill:rgb(0%,0%,0%);fill-opacity:1;" d="M 27.050781 26.621094 C 26.984375 26.679688 26.984375 27.75 27.042969 27.808594 C 27.070312 27.828125 27.179688 27.808594 27.292969 27.742188 C 27.492188 27.644531 27.5 27.621094 27.5 27.105469 L 27.5 26.570312 L 27.300781 26.570312 C 27.1875 26.570312 27.070312 26.59375 27.050781 26.621094 Z M 27.050781 26.621094 "/>
<path style=" stroke:none;fill-rule:nonzero;fill:rgb(0%,0%,0%);fill-opacity:1;" d="M 23.894531 31.65625 C 23.871094 31.714844 23.863281 32.363281 23.871094 33.105469 L 23.894531 34.464844 L 24.128906 34.484375 L 24.355469 34.507812 L 24.371094 33.148438 C 24.371094 32.398438 24.378906 31.742188 24.386719 31.691406 C 24.394531 31.570312 23.9375 31.535156 23.894531 31.65625 Z M 23.894531 31.65625 "/>
</g>
</svg>
